<svg width="133" height="48" viewBox="0 0 133 48" fill="none" xmlns="http://www.w3.org/2000/svg">
<path d="M0.423703 31.4852C-0.271531 22.7669 6.13549 15.1434 14.7342 14.4577L108.441 6.98515C117.04 6.29945 124.574 12.8112 125.269 21.5295C125.964 30.2478 119.557 37.8712 110.959 38.5569L1.68254 47.2711L0.423703 31.4852Z" fill="#0078FF"/>
<path d="M23.4156 34.1533L23.4184 34.1887C23.4198 34.2064 23.4227 34.2418 23.4227 34.2418L30.2736 32.8938L29.5534 37.7438L18.4932 38.0913C18.5891 37.5314 18.6935 37.0776 18.7984 36.41C18.797 36.3923 18.7956 36.3746 18.7781 36.376C14.3691 36.1753 11.3772 34.1334 11.0497 30.0261C10.7165 25.848 13.6747 22.619 20.0305 22.1121C25.4608 21.6791 29.7448 23.618 30.0921 27.9731C30.3688 31.4431 27.4298 33.37 23.4156 34.1533ZM18.472 29.4521C18.5313 30.1956 19.1507 30.9123 20.7921 30.7814C22.4159 30.6519 22.8923 29.7944 22.8386 29.1217C22.7779 28.3604 22.1382 27.6097 20.5492 27.7364C18.9254 27.8659 18.4113 28.6908 18.472 29.4521Z" fill="white"/>
<path d="M44.2525 23.0312L44.6351 27.8289C44.8003 29.9003 44.9641 31.9539 45.1278 34.0076L39.0864 34.4893L38.7235 29.9394L38.2111 23.513L44.2525 23.0312ZM30.9583 32.1622L30.5517 27.0635C30.474 26.0898 30.3964 25.116 30.3187 24.1423L36.3602 23.6606L36.812 29.3258C36.8755 30.1224 37.3507 30.3518 37.8396 30.3128C38.1713 30.2864 38.5281 30.1332 38.7235 29.9394L37.6754 34.4237C37.0561 34.8116 36.0792 35.1211 35.049 35.2032C33.1807 35.3522 31.1601 34.6938 30.9583 32.1622Z" fill="white"/>
<path d="M45.8244 33.952L45.4389 29.1189C45.4037 28.6763 45.3669 28.216 45.3317 27.7734L51.3731 27.2916C51.5369 29.3452 51.7021 31.4166 51.8658 33.4702L45.8244 33.952ZM45.3317 27.7734L44.9491 22.9757L50.9905 22.4939L51.2701 25.9992L51.254 26.0183L45.3317 27.7734Z" fill="white"/>
<path d="M52.1579 26.3917L51.8416 22.426L64.5008 21.4165C63.6061 23.1982 61.4854 27.2335 60.7588 28.6989C60.7442 28.7357 60.7442 28.7357 60.7616 28.7343L64.7776 28.4141L65.0967 32.4151L52.2106 33.4427L56.2465 26.1012C56.2612 26.0644 56.2612 26.0644 56.2437 26.0658L52.1579 26.3917Z" fill="white"/>
<path d="M81.5232 25.5643C81.8056 29.1051 78.8231 31.5878 75.5229 31.851C74.2483 31.9526 72.7548 31.7332 71.7422 31.1547C71.7233 31.1384 71.7073 31.1575 71.7087 31.1752L71.9346 34.0078L65.8931 34.4896L65.5458 30.1345C65.3128 27.2133 65.0841 24.3453 64.8484 21.3888L70.8898 20.907L71.3289 26.4129C71.3995 27.2981 72.4636 27.6408 73.5112 27.5573C74.8732 27.4487 75.467 26.7421 75.4148 26.0871C75.3555 25.3435 74.6614 24.7931 73.2995 24.9017C72.3216 24.9797 71.5103 25.3829 71.3294 26.1991L72.3042 20.7942C73.0583 20.5559 73.8021 20.4075 74.518 20.3505C78.0975 20.065 81.2338 21.9351 81.5232 25.5643Z" fill="white"/>
<path d="M90.2106 30.947C85.8454 31.2951 82.2007 29.6615 81.8746 25.5719C81.5541 21.5532 84.9028 19.2551 89.2506 18.9084C93.6158 18.5603 97.269 20.3 97.5894 24.3188C97.9099 28.3375 94.5758 30.5989 90.2106 30.947ZM87.7226 25.0878C87.7748 25.7428 88.3698 26.3724 89.8539 26.2541C91.3032 26.1385 91.7894 25.4049 91.7372 24.7498C91.6892 24.1479 91.1264 23.4801 89.6422 23.5985C88.1405 23.7182 87.6718 24.4505 87.7226 25.0878Z" fill="white"/>
<path d="M114.348 22.9468C114.63 26.4875 111.648 28.9702 108.347 29.2334C107.073 29.335 105.579 29.1156 104.567 28.5372C104.548 28.5209 104.532 28.54 104.533 28.5577L104.759 31.3903L98.7175 31.872L98.3702 27.5169C98.1373 24.5958 97.9086 21.7278 97.6728 18.7712L103.714 18.2895L104.153 23.7953C104.224 24.6805 105.288 25.0233 106.336 24.9397C107.698 24.8311 108.291 24.1246 108.239 23.4695C108.18 22.726 107.486 22.1756 106.124 22.2842C105.146 22.3621 104.335 22.7653 104.154 23.5815L105.129 18.1767C105.883 17.9384 106.627 17.79 107.342 17.7329C110.922 17.4474 114.058 19.3175 114.348 22.9468Z" fill="white"/>
<path d="M132.753 5.19492C132.993 8.20966 130.777 10.8458 127.804 11.0829C124.831 11.32 122.225 9.06831 121.985 6.05357C121.745 3.03883 123.96 0.402681 126.934 0.165571C129.907 -0.071539 132.512 2.18017 132.753 5.19492Z" fill="#0078FF"/>
</svg>
